name rise30.6535peak61.5555fall82.9339.mot
datacolumns 19
datarows 23
range 10.15162100000000 10.18829300000000
endheader
time	ground_force1_vx	ground_force1_vy	ground_force1_vz	ground_force1_px	ground_force1_py	ground_force1_pz	ground_force2_vx	ground_force2_vy	ground_force2_vz	ground_force2_px	ground_force2_py	ground_force2_pz	ground_torque1_x	ground_torque1_y	ground_torque1_z	ground_torque2_x	ground_torque2_y	ground_torque2_z	
10.15162100000000	-5.93014300000000	45.66617800000000	-11.06635300000000	0.32762300000000	0.00000000000000	0.08733400000000	-43.78189000000000	786.66092000000003	-57.31931100000000	0.11364700000000	0.00000000000000	-0.09999200000000	0.00000000000000	-7.56347700000000	0.00000000000000	0.00000000000000	-19.69410300000000	0.00000000000000	
10.15329200000000	-6.26174800000000	52.11374900000000	-12.13700400000000	0.33150100000000	0.00000000000000	0.08792300000000	-44.18469400000000	784.23684300000002	-56.94305800000000	0.11311500000000	0.00000000000000	-0.09987600000000	0.00000000000000	-8.37270200000000	0.00000000000000	0.00000000000000	-19.62172800000000	0.00000000000000	
10.15496100000000	-6.45321500000000	58.48102000000000	-13.06050600000000	0.33504100000000	0.00000000000000	0.08848400000000	-44.62137900000000	781.74653999999998	-56.55020100000000	0.11257700000000	0.00000000000000	-0.09975700000000	0.00000000000000	-9.09355700000000	0.00000000000000	0.00000000000000	-19.55558700000000	0.00000000000000	
10.15662900000000	-6.49556400000000	64.70540300000000	-13.82021300000000	0.33828600000000	0.00000000000000	0.08902000000000	-45.09225000000000	779.18858100000000	-56.14087100000000	0.11203100000000	0.00000000000000	-0.09963500000000	0.00000000000000	-9.71316900000000	0.00000000000000	0.00000000000000	-19.49580100000000	0.00000000000000	
10.15829300000000	-6.38625800000000	70.75005700000000	-14.40867100000000	0.34127100000000	0.00000000000000	0.08953300000000	-45.59747000000000	776.56130199999996	-55.71520700000000	0.11147900000000	0.00000000000000	-0.09951000000000	0.00000000000000	-10.22496900000000	0.00000000000000	0.00000000000000	-19.44245800000000	0.00000000000000	
10.15996100000000	-6.12856200000000	76.60316400000001	-14.82692600000000	0.34402800000000	0.00000000000000	0.09002600000000	-46.13705800000000	773.86280599999998	-55.27335000000000	0.11092000000000	0.00000000000000	-0.09938200000000	0.00000000000000	-10.62832300000000	0.00000000000000	0.00000000000000	-19.39561800000000	0.00000000000000	
10.16162700000000	-5.73052400000000	82.27524600000000	-15.08323700000000	0.34658300000000	0.00000000000000	0.09050000000000	-46.71088400000000	771.09097099999997	-54.81545000000000	0.11035500000000	0.00000000000000	-0.09925100000000	0.00000000000000	-10.92773100000000	0.00000000000000	0.00000000000000	-19.35530300000000	0.00000000000000	
10.16329300000000	-5.20375100000000	87.79511400000000	-15.19143600000000	0.34895700000000	0.00000000000000	0.09095500000000	-47.31866900000000	768.24345100000005	-54.34166000000000	0.10978300000000	0.00000000000000	-0.09911700000000	0.00000000000000	-11.13173400000000	0.00000000000000	0.00000000000000	-19.32150600000000	0.00000000000000	
10.16495900000000	-4.56209900000000	93.20500400000000	-15.16910000000000	0.35117100000000	0.00000000000000	0.09139500000000	-47.95997700000000	765.31768099999999	-53.85213800000000	0.10920500000000	0.00000000000000	-0.09898000000000	0.00000000000000	-11.25168300000000	0.00000000000000	0.00000000000000	-19.29418100000000	0.00000000000000	
10.16662700000000	-3.82041700000000	98.55544500000001	-15.03574400000000	0.35324000000000	0.00000000000000	0.09181800000000	-48.63422000000000	762.31088999999997	-53.34705000000000	0.10862100000000	0.00000000000000	-0.09884000000000	0.00000000000000	-11.30048800000000	0.00000000000000	0.00000000000000	-19.27325300000000	0.00000000000000	
10.16829100000000	-2.99341800000000	103.90033500000000	-14.81116300000000	0.35518100000000	0.00000000000000	0.09222700000000	-49.34064900000000	759.22010499999999	-52.82656500000000	0.10803100000000	0.00000000000000	-0.09869800000000	0.00000000000000	-11.29145100000000	0.00000000000000	0.00000000000000	-19.25860700000000	0.00000000000000	
10.16995800000000	-2.09476400000000	109.29256800000000	-14.51403600000000	0.35700400000000	0.00000000000000	0.09262100000000	-50.07835800000000	756.04216099999996	-52.29086000000000	0.10743600000000	0.00000000000000	-0.09855300000000	0.00000000000000	-11.23726800000000	0.00000000000000	0.00000000000000	-19.25009600000000	0.00000000000000	
10.17162000000000	-1.13638600000000	114.78046300000000	-14.16085400000000	0.35872100000000	0.00000000000000	0.09300200000000	-50.84628200000000	752.77371500000004	-51.74011500000000	0.10683500000000	0.00000000000000	-0.09840500000000	0.00000000000000	-11.14925400000000	0.00000000000000	0.00000000000000	-19.24753800000000	0.00000000000000	
10.17328700000000	-0.12805900000000	120.40513799999999	-13.76520300000000	0.36034200000000	0.00000000000000	0.09337000000000	-51.64319800000000	749.41125699999998	-51.17452100000000	0.10623000000000	0.00000000000000	-0.09825400000000	0.00000000000000	-11.03679900000000	0.00000000000000	0.00000000000000	-19.25071500000000	0.00000000000000	
10.17495300000000	0.92278300000000	126.19885600000001	-13.33738700000000	0.36187400000000	0.00000000000000	0.09372600000000	-52.46772500000000	745.95112300000005	-50.59427300000000	0.10562100000000	0.00000000000000	-0.09810000000000	0.00000000000000	-10.90707200000000	0.00000000000000	0.00000000000000	-19.25937600000000	0.00000000000000	
10.17662300000000	2.01102300000000	132.18428900000001	-12.88436700000000	0.36332600000000	0.00000000000000	0.09407000000000	-53.31832500000000	742.38951099999997	-49.99957600000000	0.10500700000000	0.00000000000000	-0.09794400000000	0.00000000000000	-10.76494300000000	0.00000000000000	0.00000000000000	-19.27323500000000	0.00000000000000	
10.17829400000000	3.13366400000000	138.37459999999999	-12.40995600000000	0.36470300000000	0.00000000000000	0.09440200000000	-54.19330500000000	738.72249799999997	-49.39064000000000	0.10439100000000	0.00000000000000	-0.09778500000000	0.00000000000000	-10.61308500000000	0.00000000000000	0.00000000000000	-19.29197300000000	0.00000000000000	
10.17995300000000	4.28950700000000	144.77417900000000	-11.91521300000000	0.36601000000000	0.00000000000000	0.09472300000000	-55.09082400000000	734.94605400000000	-48.76769000000000	0.10377200000000	0.00000000000000	-0.09762300000000	0.00000000000000	-10.45223400000000	0.00000000000000	0.00000000000000	-19.31523700000000	0.00000000000000	
10.18161900000000	5.47875200000000	151.37985699999999	-11.39897700000000	0.36725200000000	0.00000000000000	0.09503300000000	-56.00888800000000	731.05606499999999	-48.13095600000000	0.10315000000000	0.00000000000000	-0.09745900000000	0.00000000000000	-10.28153500000000	0.00000000000000	0.00000000000000	-19.34264300000000	0.00000000000000	
10.18329400000000	6.70256000000000	158.18242400000000	-10.85845400000000	0.36843400000000	0.00000000000000	0.09533300000000	-56.94536400000000	727.04834900000003	-47.48068200000000	0.10252700000000	0.00000000000000	-0.09729200000000	0.00000000000000	-10.09895000000000	0.00000000000000	0.00000000000000	-19.37377700000000	0.00000000000000	
10.18495700000000	7.96262900000000	165.16827799999999	-10.28983000000000	0.36955900000000	0.00000000000000	0.09562200000000	-57.89797700000000	722.91867700000000	-46.81712300000000	0.10190200000000	0.00000000000000	-0.09712300000000	0.00000000000000	-9.90167400000000	0.00000000000000	0.00000000000000	-19.40819500000000	0.00000000000000	
10.18662500000000	9.26079600000000	172.32105300000001	-9.68884000000000	0.37062900000000	0.00000000000000	0.09590100000000	-58.86431800000000	718.66279899999995	-46.14054700000000	0.10127700000000	0.00000000000000	-0.09695100000000	0.00000000000000	-9.68654200000000	0.00000000000000	0.00000000000000	-19.44542300000000	0.00000000000000	
10.18829300000000	10.59870500000000	179.62312600000001	-9.05127300000000	0.37164800000000	0.00000000000000	0.09617100000000	-59.84185300000000	714.27646400000003	-45.45123400000000	0.10065200000000	0.00000000000000	-0.09677700000000	0.00000000000000	-9.45037500000000	0.00000000000000	0.00000000000000	-19.48496300000000	0.00000000000000	
